<svg width="48" height="28" viewBox="0 0 48 28" fill="none" xmlns="http://www.w3.org/2000/svg">
<path d="M13.0018 6.33512V5.80671C13.4762 5.80671 13.8072 5.70728 13.9947 5.50841C14.185 5.30955 14.2802 4.97716 14.2802 4.51125V3.14762C14.2802 2.75557 14.3171 2.41608 14.391 2.12915C14.4677 1.84222 14.5913 1.605 14.7617 1.4175C14.9322 1.23 15.1594 1.0908 15.4435 0.99989C15.7276 0.90898 16.0785 0.863525 16.4961 0.863525V1.69875C16.1665 1.69875 15.9066 1.74989 15.7163 1.85216C15.5288 1.95443 15.3952 2.11353 15.3157 2.32943C15.239 2.5425 15.2006 2.81523 15.2006 3.14762V4.85216C15.2006 5.07375 15.1708 5.27546 15.1112 5.45728C15.0543 5.63909 14.9478 5.79534 14.7915 5.92603C14.6353 6.05671 14.4123 6.15756 14.1225 6.22858C13.8356 6.29961 13.462 6.33512 13.0018 6.33512ZM16.4961 11.7726C16.0785 11.7726 15.7276 11.7272 15.4435 11.6363C15.1594 11.5453 14.9322 11.4061 14.7617 11.2186C14.5913 11.0311 14.4677 10.7939 14.391 10.507C14.3171 10.2201 14.2802 9.88057 14.2802 9.48853V8.12489C14.2802 7.65898 14.185 7.32659 13.9947 7.12773C13.8072 6.92887 13.4762 6.82943 13.0018 6.82943V6.30103C13.462 6.30103 13.8356 6.33654 14.1225 6.40756C14.4123 6.47858 14.6353 6.57943 14.7915 6.71012C14.9478 6.8408 15.0543 6.99705 15.1112 7.17887C15.1708 7.36068 15.2006 7.56239 15.2006 7.78398V9.48853C15.2006 9.82091 15.239 10.0936 15.3157 10.3067C15.3952 10.5198 15.5288 10.6774 15.7163 10.7797C15.9066 10.8848 16.1665 10.9374 16.4961 10.9374V11.7726ZM13.0018 6.82943V5.80671H14.0075V6.82943H13.0018Z" fill="black"/>
<path d="M20.7159 10.1192C20.1477 10.1192 19.6392 10.0127 19.1903 9.79961C18.7415 9.5837 18.3849 9.28824 18.1207 8.91324C17.8594 8.53824 17.7202 8.10926 17.7031 7.62631H19.2372C19.2656 7.98426 19.4205 8.27688 19.7017 8.50415C19.983 8.72858 20.321 8.8408 20.7159 8.8408C21.0256 8.8408 21.3011 8.76978 21.5426 8.62773C21.7841 8.48568 21.9744 8.28824 22.1136 8.0354C22.2528 7.78256 22.321 7.49421 22.3182 7.17034C22.321 6.8408 22.2514 6.54819 22.1094 6.2925C21.9673 6.03682 21.7727 5.83654 21.5256 5.69165C21.2784 5.54392 20.9943 5.47006 20.6733 5.47006C20.4119 5.46722 20.1548 5.51551 19.902 5.61495C19.6491 5.71438 19.4489 5.84506 19.3011 6.00699L17.8736 5.77262L18.3295 1.27262H23.392V2.59364H19.6378L19.3864 4.90756H19.4375C19.5994 4.71722 19.8281 4.55955 20.1236 4.43455C20.419 4.30671 20.7429 4.24279 21.0952 4.24279C21.6236 4.24279 22.0952 4.36779 22.5099 4.61779C22.9247 4.86495 23.2514 5.20586 23.4901 5.64051C23.7287 6.07517 23.848 6.57233 23.848 7.13199C23.848 7.7087 23.7145 8.2229 23.4474 8.67461C23.1832 9.12347 22.8153 9.47716 22.3438 9.73569C21.875 9.99137 21.3324 10.1192 20.7159 10.1192Z" fill="black"/>
<path d="M28.3097 10.1192C27.7415 10.1192 27.233 10.0127 26.7841 9.79961C26.3352 9.5837 25.9787 9.28824 25.7145 8.91324C25.4531 8.53824 25.3139 8.10926 25.2969 7.62631H26.831C26.8594 7.98426 27.0142 8.27688 27.2955 8.50415C27.5767 8.72858 27.9148 8.8408 28.3097 8.8408C28.6193 8.8408 28.8949 8.76978 29.1364 8.62773C29.3778 8.48568 29.5682 8.28824 29.7074 8.0354C29.8466 7.78256 29.9148 7.49421 29.9119 7.17034C29.9148 6.8408 29.8452 6.54819 29.7031 6.2925C29.5611 6.03682 29.3665 5.83654 29.1193 5.69165C28.8722 5.54392 28.5881 5.47006 28.267 5.47006C28.0057 5.46722 27.7486 5.51551 27.4957 5.61495C27.2429 5.71438 27.0426 5.84506 26.8949 6.00699L25.4673 5.77262L25.9233 1.27262H30.9858V2.59364H27.2315L26.9801 4.90756H27.0312C27.1932 4.71722 27.4219 4.55955 27.7173 4.43455C28.0128 4.30671 28.3366 4.24279 28.6889 4.24279C29.2173 4.24279 29.6889 4.36779 30.1037 4.61779C30.5185 4.86495 30.8452 5.20586 31.0838 5.64051C31.3224 6.07517 31.4418 6.57233 31.4418 7.13199C31.4418 7.7087 31.3082 8.2229 31.0412 8.67461C30.777 9.12347 30.4091 9.47716 29.9375 9.73569C29.4688 9.99137 28.9261 10.1192 28.3097 10.1192Z" fill="black"/>
<path d="M35.9972 6.30103V6.82943C35.5227 6.82943 35.1903 6.92887 35 7.12773C34.8125 7.32659 34.7188 7.65898 34.7188 8.12489V9.48853C34.7188 9.88057 34.6804 10.2201 34.6037 10.507C34.5298 10.7939 34.4077 11.0311 34.2372 11.2186C34.0668 11.4061 33.8395 11.5453 33.5554 11.6363C33.2713 11.7272 32.9205 11.7726 32.5028 11.7726V10.9374C32.8324 10.9374 33.0909 10.8848 33.2784 10.7797C33.4687 10.6774 33.6023 10.5198 33.679 10.3067C33.7585 10.0936 33.7983 9.82091 33.7983 9.48853V7.78398C33.7983 7.56239 33.8267 7.36068 33.8835 7.17887C33.9432 6.99705 34.0511 6.8408 34.2074 6.71012C34.3636 6.57943 34.5852 6.47858 34.8722 6.40756C35.1619 6.33654 35.5369 6.30103 35.9972 6.30103ZM32.5028 0.863525C32.9205 0.863525 33.2713 0.90898 33.5554 0.99989C33.8395 1.0908 34.0668 1.23 34.2372 1.4175C34.4077 1.605 34.5298 1.84222 34.6037 2.12915C34.6804 2.41608 34.7188 2.75557 34.7188 3.14762V4.51125C34.7188 4.97716 34.8125 5.30955 35 5.50841C35.1903 5.70728 35.5227 5.80671 35.9972 5.80671V6.33512C35.5369 6.33512 35.1619 6.29961 34.8722 6.22858C34.5852 6.15756 34.3636 6.05671 34.2074 5.92603C34.0511 5.79534 33.9432 5.63909 33.8835 5.45728C33.8267 5.27546 33.7983 5.07375 33.7983 4.85216V3.14762C33.7983 2.81523 33.7585 2.5425 33.679 2.32943C33.6023 2.11353 33.4687 1.95443 33.2784 1.85216C33.0909 1.74989 32.8324 1.69875 32.5028 1.69875V0.863525ZM35.9972 5.80671V6.82943H34.9915V5.80671H35.9972Z" fill="black"/>
<path d="M3.97301 25.132C3.33949 25.132 2.79403 24.9885 2.33665 24.7016C1.8821 24.4118 1.53267 24.0127 1.28835 23.5042C1.04403 22.9956 0.921875 22.4132 0.921875 21.757C0.921875 21.0922 1.04688 20.5056 1.29688 19.997C1.54688 19.4857 1.89915 19.0865 2.35369 18.7996C2.80824 18.5127 3.34375 18.3692 3.96023 18.3692C4.45739 18.3692 4.90057 18.4615 5.28977 18.6462C5.67898 18.828 5.9929 19.0837 6.23153 19.4132C6.47301 19.7428 6.61648 20.1277 6.66193 20.5681H5.42188C5.35369 20.2613 5.19744 19.997 4.95312 19.7755C4.71165 19.5539 4.38778 19.4431 3.98153 19.4431C3.62642 19.4431 3.31534 19.5368 3.0483 19.7243C2.78409 19.909 2.57812 20.1732 2.4304 20.5169C2.28267 20.8578 2.20881 21.2613 2.20881 21.7272C2.20881 22.2044 2.28125 22.6164 2.42614 22.963C2.57102 23.3095 2.77557 23.578 3.03977 23.7684C3.30682 23.9587 3.62074 24.0539 3.98153 24.0539C4.22301 24.0539 4.44176 24.0098 4.63778 23.9218C4.83665 23.8309 5.00284 23.7016 5.13636 23.534C5.27273 23.3664 5.3679 23.1647 5.42188 22.9289H6.66193C6.61648 23.3522 6.47869 23.73 6.24858 24.0624C6.01847 24.3948 5.71023 24.6561 5.32386 24.8465C4.94034 25.0368 4.49006 25.132 3.97301 25.132Z" fill="black"/>
<path d="M10.7816 25.132C10.168 25.132 9.63246 24.9914 9.17507 24.7101C8.71768 24.4289 8.36257 24.0354 8.10973 23.5297C7.85689 23.024 7.73047 22.4331 7.73047 21.757C7.73047 21.078 7.85689 20.4843 8.10973 19.9757C8.36257 19.4672 8.71768 19.0723 9.17507 18.7911C9.63246 18.5098 10.168 18.3692 10.7816 18.3692C11.3952 18.3692 11.9308 18.5098 12.3881 18.7911C12.8455 19.0723 13.2006 19.4672 13.4535 19.9757C13.7063 20.4843 13.8327 21.078 13.8327 21.757C13.8327 22.4331 13.7063 23.024 13.4535 23.5297C13.2006 24.0354 12.8455 24.4289 12.3881 24.7101C11.9308 24.9914 11.3952 25.132 10.7816 25.132ZM10.7859 24.0624C11.1836 24.0624 11.5131 23.9573 11.7745 23.747C12.0359 23.5368 12.229 23.257 12.354 22.9076C12.4819 22.5581 12.5458 22.1732 12.5458 21.7527C12.5458 21.3351 12.4819 20.9516 12.354 20.6022C12.229 20.2499 12.0359 19.9672 11.7745 19.7542C11.5131 19.5411 11.1836 19.4345 10.7859 19.4345C10.3853 19.4345 10.0529 19.5411 9.78871 19.7542C9.52734 19.9672 9.33274 20.2499 9.2049 20.6022C9.0799 20.9516 9.0174 21.3351 9.0174 21.7527C9.0174 22.1732 9.0799 22.5581 9.2049 22.9076C9.33274 23.257 9.52734 23.5368 9.78871 23.747C10.0529 23.9573 10.3853 24.0624 10.7859 24.0624Z" fill="black"/>
<path d="M15.255 24.9999V18.4544H16.478V19.5198H16.5589C16.6953 19.159 16.9183 18.8777 17.228 18.676C17.5376 18.4715 17.9084 18.3692 18.3402 18.3692C18.7777 18.3692 19.1442 18.4715 19.4396 18.676C19.7379 18.8806 19.9581 19.1618 20.1001 19.5198H20.1683C20.3246 19.1703 20.5732 18.8919 20.9141 18.6845C21.255 18.4743 21.6612 18.3692 22.1328 18.3692C22.7266 18.3692 23.2109 18.5553 23.5859 18.9274C23.9638 19.2996 24.1527 19.8607 24.1527 20.6107V24.9999H22.8786V20.73C22.8786 20.2868 22.7578 19.9658 22.5163 19.7669C22.2749 19.5681 21.9865 19.4686 21.6513 19.4686C21.2365 19.4686 20.9141 19.5965 20.6839 19.8522C20.4538 20.105 20.3388 20.4303 20.3388 20.828V24.9999H19.0689V20.649C19.0689 20.2939 18.9581 20.0084 18.7365 19.7925C18.5149 19.5766 18.2266 19.4686 17.8714 19.4686C17.63 19.4686 17.407 19.5326 17.2024 19.6604C17.0007 19.7854 16.8374 19.9601 16.7124 20.1845C16.5902 20.409 16.5291 20.6689 16.5291 20.9644V24.9999H15.255Z" fill="black"/>
<path d="M25.8604 27.4544V18.4544H27.1048V19.5155H27.2113C27.2852 19.3792 27.3917 19.2215 27.5309 19.0425C27.6701 18.8635 27.8633 18.7073 28.1104 18.5738C28.3576 18.4374 28.6843 18.3692 29.0906 18.3692C29.619 18.3692 30.0906 18.5027 30.5053 18.7698C30.9201 19.0368 31.2454 19.4218 31.4812 19.9246C31.7198 20.4274 31.8391 21.0326 31.8391 21.7399C31.8391 22.4473 31.7212 23.0539 31.4854 23.5595C31.2496 24.0624 30.9258 24.4502 30.5138 24.7229C30.1019 24.9928 29.6317 25.1277 29.1033 25.1277C28.7056 25.1277 28.3803 25.061 28.1275 24.9274C27.8775 24.7939 27.6815 24.6377 27.5394 24.4587C27.3974 24.2797 27.288 24.1206 27.2113 23.9814H27.1346V27.4544H25.8604ZM27.109 21.7272C27.109 22.1874 27.1758 22.5908 27.3093 22.9374C27.4428 23.284 27.636 23.5553 27.8888 23.7513C28.1417 23.9445 28.4513 24.0411 28.8178 24.0411C29.1985 24.0411 29.5167 23.9402 29.7724 23.7385C30.0281 23.534 30.2212 23.257 30.3519 22.9076C30.4854 22.5581 30.5522 22.1647 30.5522 21.7272C30.5522 21.2953 30.4869 20.9076 30.3562 20.5638C30.2283 20.2201 30.0352 19.9488 29.7766 19.7499C29.521 19.551 29.2013 19.4516 28.8178 19.4516C28.4485 19.4516 28.136 19.5468 27.8803 19.7371C27.6275 19.9274 27.4357 20.1931 27.305 20.534C27.1744 20.8749 27.109 21.2726 27.109 21.7272Z" fill="black"/>
<path d="M38.1715 20.0524L37.0167 20.257C36.9684 20.1093 36.8917 19.9686 36.7866 19.8351C36.6843 19.7016 36.5451 19.5922 36.369 19.507C36.1928 19.4218 35.9727 19.3792 35.7085 19.3792C35.3477 19.3792 35.0465 19.4601 34.805 19.622C34.5636 19.7811 34.4428 19.9871 34.4428 20.2399C34.4428 20.4587 34.5238 20.6348 34.6857 20.7684C34.8477 20.9019 35.109 21.0113 35.4698 21.0965L36.5096 21.3351C37.1119 21.4743 37.5607 21.6888 37.8562 21.9786C38.1516 22.2684 38.2994 22.6448 38.2994 23.1078C38.2994 23.4999 38.1857 23.8493 37.9585 24.1561C37.734 24.4601 37.4201 24.6988 37.0167 24.872C36.6161 25.0453 36.1516 25.132 35.6232 25.132C34.8903 25.132 34.2923 24.9757 33.8292 24.6632C33.3661 24.3479 33.082 23.9005 32.9769 23.3209L34.2085 23.1334C34.2852 23.4544 34.4428 23.6973 34.6815 23.8621C34.9201 24.024 35.2312 24.105 35.6147 24.105C36.0323 24.105 36.3661 24.0184 36.6161 23.8451C36.8661 23.6689 36.9911 23.4544 36.9911 23.2016C36.9911 22.997 36.9144 22.8252 36.761 22.686C36.6104 22.5468 36.3789 22.4417 36.0664 22.3706L34.9585 22.1277C34.3477 21.9885 33.896 21.7669 33.6033 21.463C33.3136 21.159 33.1687 20.774 33.1687 20.3081C33.1687 19.9218 33.2766 19.5837 33.4925 19.2939C33.7085 19.0041 34.0067 18.7783 34.3874 18.6164C34.7681 18.4516 35.2042 18.3692 35.6957 18.3692C36.4031 18.3692 36.9599 18.5226 37.3661 18.8294C37.7724 19.1334 38.0408 19.5411 38.1715 20.0524Z" fill="black"/>
<path d="M42.4574 25.132C41.8239 25.132 41.2784 24.9885 40.821 24.7016C40.3665 24.4118 40.017 24.0127 39.7727 23.5042C39.5284 22.9956 39.4062 22.4132 39.4062 21.757C39.4062 21.0922 39.5312 20.5056 39.7812 19.997C40.0312 19.4857 40.3835 19.0865 40.8381 18.7996C41.2926 18.5127 41.8281 18.3692 42.4446 18.3692C42.9418 18.3692 43.3849 18.4615 43.7741 18.6462C44.1634 18.828 44.4773 19.0837 44.7159 19.4132C44.9574 19.7428 45.1009 20.1277 45.1463 20.5681H43.9062C43.8381 20.2613 43.6818 19.997 43.4375 19.7755C43.196 19.5539 42.8722 19.4431 42.4659 19.4431C42.1108 19.4431 41.7997 19.5368 41.5327 19.7243C41.2685 19.909 41.0625 20.1732 40.9148 20.5169C40.767 20.8578 40.6932 21.2613 40.6932 21.7272C40.6932 22.2044 40.7656 22.6164 40.9105 22.963C41.0554 23.3095 41.2599 23.578 41.5241 23.7684C41.7912 23.9587 42.1051 24.0539 42.4659 24.0539C42.7074 24.0539 42.9261 24.0098 43.1222 23.9218C43.321 23.8309 43.4872 23.7016 43.6207 23.534C43.7571 23.3664 43.8523 23.1647 43.9062 22.9289H45.1463C45.1009 23.3522 44.9631 23.73 44.733 24.0624C44.5028 24.3948 44.1946 24.6561 43.8082 24.8465C43.4247 25.0368 42.9744 25.132 42.4574 25.132Z" fill="black"/>
<path d="M46.5089 24.9999V18.4544H47.783V24.9999H46.5089ZM47.1523 17.4445C46.9308 17.4445 46.7404 17.3706 46.5813 17.2229C46.4251 17.0723 46.3469 16.8934 46.3469 16.686C46.3469 16.4757 46.4251 16.2968 46.5813 16.149C46.7404 15.9985 46.9308 15.9232 47.1523 15.9232C47.3739 15.9232 47.5629 15.9985 47.7191 16.149C47.8782 16.2968 47.9577 16.4757 47.9577 16.686C47.9577 16.8934 47.8782 17.0723 47.7191 17.2229C47.5629 17.3706 47.3739 17.4445 47.1523 17.4445Z" fill="black"/>
</svg>
